HIERARCHY
ROOT joint_Root
{
  OFFSET 0 0 0
  CHANNELS 6 Xposition Yposition Zposition Zrotation Xrotation Yrotation
  JOINT Hips
  {
    OFFSET 0 93.9241 -3
    CHANNELS 6 Xposition Yposition Zposition Zrotation Xrotation Yrotation
    JOINT Spine
    {
      OFFSET 15.7357 0 0
      CHANNELS 6 Xposition Yposition Zposition Zrotation Xrotation Yrotation
      JOINT Chest
      {
        OFFSET 8.98455 -0.406207 0
        CHANNELS 6 Xposition Yposition Zposition Zrotation Xrotation Yrotation
        JOINT Neck
        {
          OFFSET 16.3773 0 0
          CHANNELS 6 Xposition Yposition Zposition Zrotation Xrotation Yrotation
          JOINT Head
          {
            OFFSET 6.45672 0 0
            CHANNELS 6 Xposition Yposition Zposition Zrotation Xrotation Yrotation
            End Site
            {
              OFFSET 0 0 0
            }
          }
        }
        JOINT Shoulder_L
        {
          OFFSET 12.9942 -0.242716 4.98039
          CHANNELS 6 Xposition Yposition Zposition Zrotation Xrotation Yrotation
          JOINT UpperArm_L
          {
            OFFSET 5.34809 0 0
            CHANNELS 6 Xposition Yposition Zposition Zrotation Xrotation Yrotation
            JOINT LowerArm_L
            {
              OFFSET 24.3286 1.87007e-05 0
              CHANNELS 6 Xposition Yposition Zposition Zrotation Xrotation Yrotation
              JOINT Hand_L
              {
                OFFSET 22.2916 0 0
                CHANNELS 6 Xposition Yposition Zposition Zrotation Xrotation Yrotation
                End Site
                {
                  OFFSET 0 0 0
                }
              }
            }
          }
        }
        JOINT Shoulder_R
        {
          OFFSET 12.9945 -0.242716 -4.98039
          CHANNELS 6 Xposition Yposition Zposition Zrotation Xrotation Yrotation
          JOINT UpperArm_R
          {
            OFFSET -5.34813 0 0
            CHANNELS 6 Xposition Yposition Zposition Zrotation Xrotation Yrotation
            JOINT LowerArm_R
            {
              OFFSET -24.3289 0.000322201 0
              CHANNELS 6 Xposition Yposition Zposition Zrotation Xrotation Yrotation
              JOINT Hand_R
              {
                OFFSET -22.2915 -0.000108084 0
                CHANNELS 6 Xposition Yposition Zposition Zrotation Xrotation Yrotation
                End Site
                {
                  OFFSET 0 0 0
                }
              }
            }
          }
        }
      }
    }
    JOINT UpperLeg_L
    {
      OFFSET -2.19248 -6.46944 0
      CHANNELS 6 Xposition Yposition Zposition Zrotation Xrotation Yrotation
      JOINT LowerLeg_L
      {
        OFFSET 39.0811 0 -1.23785e-05
        CHANNELS 6 Xposition Yposition Zposition Zrotation Xrotation Yrotation
        JOINT Foot_L
        {
          OFFSET 40.9854 0 -1.26872e-05
          CHANNELS 6 Xposition Yposition Zposition Zrotation Xrotation Yrotation
          JOINT Toes_L
          {
            OFFSET 11.7543 0 0
            CHANNELS 6 Xposition Yposition Zposition Zrotation Xrotation Yrotation
            End Site
            {
              OFFSET 0 0 0
            }
          }
        }
      }
    }
    JOINT UpperLeg_R
    {
      OFFSET -2.19251 6.46944 0
      CHANNELS 6 Xposition Yposition Zposition Zrotation Xrotation Yrotation
      JOINT LowerLeg_R
      {
        OFFSET -39.0811 -0.00228153 -0.0401928
        CHANNELS 6 Xposition Yposition Zposition Zrotation Xrotation Yrotation
        JOINT Foot_R
        {
          OFFSET -40.9854 0 0
          CHANNELS 6 Xposition Yposition Zposition Zrotation Xrotation Yrotation
          JOINT Toes_R
          {
            OFFSET -11.7543 0 0
            CHANNELS 6 Xposition Yposition Zposition Zrotation Xrotation Yrotation
            End Site
            {
              OFFSET 0 0 0
            }
          }
        }
      }
    }
  }
}
MOTION
Frames:	9
Frame Time:	0.0333333
0 0 0 0 0 -0 -1.75087 90.6672 -11.5705 87.4475 -5.92149 11.6259 15.7357 5.1072e-06 -5.51765e-07 99.1681 80.66 -98.1432 8.98455 -0.406207 -4.3199e-07 10.66 2.98111 1.7707 16.3773 -1.3905e-06 -6.99897e-07 3.2312 0.783459 -1.66156 6.45672 -1.25837e-06 -1.02172e-07 18.0155 -2.90918 -2.48517 12.9942 -0.242716 4.98039 -89.1904 -6.03049 -97.3395 5.34809 -7.22636e-06 -6.2814e-07 -77.9898 11.8447 -4.35346 24.3286 1.87007e-05 4.90208e-06 27.91 -18.6155 -121.075 22.2916 -9.88446e-07 4.63217e-06 39.7052 5.40887 -3.23381 12.9945 -0.242716 -4.98039 90.2226 -5.93494 -102.848 -5.34813 -1.25947e-06 -3.79883e-06 -79.117 16.8293 -9.36061 -24.3289 0.000322201 -8.65921e-06 27.0932 -13.0848 -113.873 -22.2915 -0.000108084 -4.47941e-06 61.4677 5.55787 -9.09453 -2.19248 -6.46944 -1.22534e-07 -175.073 15.1135 -10.5721 39.0811 -6.73843e-06 -1.23785e-05 -0.0114631 0.0376175 30.6763 40.9854 -6.48686e-06 -1.26872e-05 -2.97958 9.33793 -59.8362 11.7543 -2.30145e-07 3.05095e-06 0.0557626 -0.0625051 -17.1881 -2.19251 6.46944 -1.45247e-06 -170.284 -1.85295 -179.932 -39.0811 -0.00228153 -0.0401928 0.0846403 -0.104594 28.2169 -40.9854 7.72618e-06 5.99936e-06 5.28176 -8.23551 -66.4613 -11.7543 -5.6619e-06 -5.58687e-06 0.012312 -0.0127577 -16.6725 
0 0 0 0 0 -0 -1.74637 90.6646 -11.511 87.4356 -5.97601 11.6958 15.7357 5.1072e-06 -5.51765e-07 99.315 80.6511 -98.294 8.98455 -0.406207 -4.3199e-07 10.6696 3.03085 1.75809 16.3773 -1.3905e-06 -6.99897e-07 3.32471 0.719228 -1.56748 6.45672 -1.25837e-06 -1.02172e-07 18.0846 -3.00945 -2.46521 12.9942 -0.242716 4.98039 -89.2155 -5.78285 -97.2609 5.34809 -7.22636e-06 -6.2814e-07 -78.2127 10.2435 -4.50221 24.3286 1.87007e-05 4.90208e-06 23.6584 -16.0406 -122.24 22.2916 -9.88446e-07 4.63217e-06 42.9253 5.37173 -2.08235 12.9945 -0.242716 -4.98039 90.2249 -5.93864 -102.827 -5.34813 -1.25947e-06 -3.79883e-06 -79.0814 16.5142 -9.01409 -24.3289 0.000322201 -8.65921e-06 35.0983 -15.7865 -111.164 -22.2915 -0.000108084 -4.47941e-06 61.8402 5.60442 -11.5972 -2.19248 -6.46944 -1.22534e-07 -175.084 14.9864 -10.4744 39.0811 -6.73843e-06 -1.23785e-05 -0.0102357 0.0361135 30.7442 40.9854 -6.48686e-06 -1.26872e-05 -2.92362 9.43005 -59.9181 11.7543 -2.30145e-07 3.05095e-06 0.0607411 -0.0681211 -17.2426 -2.19251 6.46944 -1.45247e-06 -170.28 -1.83318 -179.807 -39.0811 -0.00228153 -0.0401928 0.0844298 -0.104224 28.2118 -40.9854 7.72618e-06 5.99936e-06 5.2886 -8.16238 -66.5085 -11.7543 -5.6619e-06 -5.58687e-06 0.00644041 -0.00664836 -16.6254 
0 0 0 0 0 -0 -1.73846 90.6616 -11.4598 87.4583 -6.04454 11.7273 15.7357 5.1072e-06 -5.51765e-07 99.6392 80.6544 -98.6401 8.98455 -0.406207 -4.3199e-07 10.6463 3.13272 1.70539 16.3773 -1.3905e-06 -6.99897e-07 3.43466 0.661571 -1.42813 6.45672 -1.25837e-06 -1.02172e-07 18.2318 -3.16774 -2.41154 12.9942 -0.242716 4.98039 -89.2186 -5.58896 -97.0276 5.34809 -7.22636e-06 -6.2814e-07 -78.3313 8.62916 -4.95412 24.3286 1.87007e-05 4.90208e-06 21.1173 -14.4117 -122.799 22.2916 -9.88446e-07 4.63217e-06 45.8773 5.28613 0.43892 12.9945 -0.242716 -4.98039 90.2278 -5.83503 -102.76 -5.34813 -1.25947e-06 -3.79883e-06 -79.1962 15.739 -8.63294 -24.3289 0.000322201 -8.65921e-06 40.4368 -17.2247 -109.162 -22.2915 -0.000108084 -4.47941e-06 63.2654 5.62278 -12.8361 -2.19248 -6.46944 -1.22534e-07 -175.119 14.873 -10.4186 39.0811 -6.73843e-06 -1.23785e-05 -0.00989152 0.0348769 30.7897 40.9854 -6.48686e-06 -1.26872e-05 -2.88342 9.46223 -59.977 11.7543 -2.30145e-07 3.05095e-06 0.0538442 -0.0603164 -17.1667 -2.19251 6.46944 -1.45247e-06 -170.304 -1.83415 -179.753 -39.0811 -0.00228153 -0.0401928 0.0865519 -0.108051 28.2351 -40.9854 7.72618e-06 5.99936e-06 5.2857 -8.14005 -66.554 -11.7543 -5.6619e-06 -5.58687e-06 -0.00798702 0.00646203 -16.5736 
0 0 0 0 0 -0 -1.73706 90.6497 -11.4164 87.4703 -6.05469 11.6858 15.7357 5.1072e-06 -5.51765e-07 100.093 80.6845 -99.1183 8.98455 -0.406207 -4.3199e-07 10.562 3.26602 1.64665 16.3773 -1.3905e-06 -6.99897e-07 3.55544 0.587283 -1.37732 6.45672 -1.25837e-06 -1.02172e-07 18.3689 -3.33886 -2.18632 12.9942 -0.242716 4.98039 -89.2037 -5.50532 -96.7569 5.34809 -7.22636e-06 -6.2814e-07 -77.2485 9.68908 -5.3373 24.3286 1.87007e-05 4.90208e-06 21.7918 -14.7405 -122.474 22.2916 -9.88446e-07 4.63217e-06 47.4126 5.27154 0.85591 12.9945 -0.242716 -4.98039 90.2249 -5.68757 -102.732 -5.34813 -1.25947e-06 -3.79883e-06 -79.2778 15.6659 -8.20344 -24.3289 0.000322201 -8.65921e-06 36.4047 -15.9688 -110.461 -22.2915 -0.000108084 -4.47941e-06 64.1755 5.61739 -12.447 -2.19248 -6.46944 -1.22534e-07 -175.124 14.8881 -10.4824 39.0811 -6.73843e-06 -1.23785e-05 -0.0117337 0.0356967 30.8746 40.9854 -6.48686e-06 -1.26872e-05 -2.87805 9.42512 -60.0416 11.7543 -2.30145e-07 3.05095e-06 0.054896 -0.061514 -17.1782 -2.19251 6.46944 -1.45247e-06 -170.318 -1.85022 -179.794 -39.0811 -0.00228153 -0.0401928 0.0856511 -0.105955 28.3054 -40.9854 7.72618e-06 5.99936e-06 5.28215 -8.11901 -66.623 -11.7543 -5.6619e-06 -5.58687e-06 0.0089326 -0.00925134 -16.6454 
0 0 0 0 0 -0 -1.7377 90.646 -11.3759 87.4736 -5.98481 11.7103 15.7357 5.1072e-06 -5.51765e-07 100.286 80.6803 -99.3154 8.98455 -0.406207 -4.3199e-07 10.5591 3.32875 1.6328 16.3773 -1.3905e-06 -6.99897e-07 3.62604 0.546923 -1.38347 6.45672 -1.25837e-06 -1.02172e-07 18.408 -3.42016 -2.09822 12.9942 -0.242716 4.98039 -89.1936 -5.57098 -96.7499 5.34809 -7.22636e-06 -6.2814e-07 -76.0339 11.7704 -5.10041 24.3286 1.87007e-05 4.90208e-06 27.0249 -17.6512 -120.731 22.2916 -9.88446e-07 4.63217e-06 45.5377 5.36207 -1.77193 12.9945 -0.242716 -4.98039 90.2278 -5.69181 -102.705 -5.34813 -1.25947e-06 -3.79883e-06 -79.4308 16.1704 -8.12611 -24.3289 0.000322201 -8.65921e-06 27.5199 -12.8957 -113.19 -22.2915 -0.000108084 -4.47941e-06 65.1515 5.58575 -10.5546 -2.19248 -6.46944 -1.22534e-07 -175.166 14.9661 -10.4569 39.0811 -6.73843e-06 -1.23785e-05 -0.0109401 0.0343182 30.9228 40.9854 -6.48686e-06 -1.26872e-05 -2.85939 9.38596 -60.0912 11.7543 -2.30145e-07 3.05095e-06 0.0496502 -0.0555718 -17.1205 -2.19251 6.46944 -1.45247e-06 -170.326 -1.81135 -179.751 -39.0811 -0.00228153 -0.0401928 0.0858429 -0.106334 28.3158 -40.9854 7.72618e-06 5.99936e-06 5.26588 -8.16405 -66.6611 -11.7543 -5.6619e-06 -5.58687e-06 -0.00750997 0.00603347 -16.5737 
0 0 0 0 0 -0 -1.73875 90.6362 -11.3449 87.427 -5.86405 11.719 15.7357 5.1072e-06 -5.51765e-07 100.093 80.659 -99.0947 8.98455 -0.406207 -4.3199e-07 10.6117 3.27567 1.69124 16.3773 -1.3905e-06 -6.99897e-07 3.54697 0.581123 -1.41966 6.45672 -1.25837e-06 -1.02172e-07 18.4426 -3.3676 -2.12709 12.9942 -0.242716 4.98039 -89.1867 -5.62778 -96.7627 5.34809 -7.22636e-06 -6.2814e-07 -75.7658 12.4353 -4.70082 24.3286 1.87007e-05 4.90208e-06 35.4764 -21.6559 -117.377 22.2916 -9.88446e-07 4.63217e-06 43.8297 5.47753 -5.67027 12.9945 -0.242716 -4.98039 90.2282 -5.67888 -102.695 -5.34813 -1.25947e-06 -3.79883e-06 -79.4932 16.4974 -8.31978 -24.3289 0.000322201 -8.65921e-06 18.8268 -9.48797 -115.806 -22.2915 -0.000108084 -4.47941e-06 66.0011 5.54424 -8.4466 -2.19248 -6.46944 -1.22534e-07 -175.135 15.0447 -10.486 39.0811 -6.73843e-06 -1.23785e-05 -0.011055 0.0367762 30.9962 40.9854 -6.48686e-06 -1.26872e-05 -2.84388 9.45276 -60.1346 11.7543 -2.30145e-07 3.05095e-06 0.0545862 -0.0611509 -17.1748 -2.19251 6.46944 -1.45247e-06 -170.313 -1.64479 -179.741 -39.0811 -0.00228153 -0.0401928 0.0846837 -0.104243 28.3302 -40.9854 7.72618e-06 5.99936e-06 5.26663 -8.15209 -66.6988 -11.7543 -5.6619e-06 -5.58687e-06 -0.00207271 0.00165885 -16.5738 
0 0 0 0 0 -0 -1.73901 90.6147 -11.3204 87.3626 -5.71361 11.8394 15.7357 5.1072e-06 -5.51765e-07 99.9304 80.6271 -98.8962 8.98455 -0.406207 -4.3199e-07 10.6828 3.23608 1.76485 16.3773 -1.3905e-06 -6.99897e-07 3.68293 0.537759 -1.39277 6.45672 -1.25837e-06 -1.02172e-07 18.285 -3.27604 -2.15458 12.9942 -0.242716 4.98039 -89.2177 -5.45077 -96.8195 5.34809 -7.22636e-06 -6.2814e-07 -76.0669 11.9937 -4.45563 24.3286 1.87007e-05 4.90208e-06 39.4469 -23.2116 -115.595 22.2916 -9.88446e-07 4.63217e-06 43.8969 5.50526 -6.75314 12.9945 -0.242716 -4.98039 90.2424 -5.64339 -102.536 -5.34813 -1.25947e-06 -3.79883e-06 -79.4178 16.8262 -8.56597 -24.3289 0.000322201 -8.65921e-06 13.3886 -7.0221 -117.186 -22.2915 -0.000108084 -4.47941e-06 66.7851 5.50728 -6.8306 -2.19248 -6.46944 -1.22534e-07 -175.132 15.0246 -10.443 39.0811 -6.73843e-06 -1.23785e-05 -0.00863368 0.0333925 31.1627 40.9854 -6.48686e-06 -1.26872e-05 -2.77345 9.5852 -60.2172 11.7543 -2.30145e-07 3.05095e-06 0.050641 -0.0566817 -17.1313 -2.19251 6.46944 -1.45247e-06 -170.279 -1.47757 -179.632 -39.0811 -0.00228153 -0.0401928 0.0839014 -0.101925 28.3957 -40.9854 7.72618e-06 5.99936e-06 5.25307 -8.1586 -66.7737 -11.7543 -5.6619e-06 -5.58687e-06 0.00273317 -0.00283053 -16.5958 
0 0 0 0 0 -0 -1.7462 90.5915 -11.2983 87.2785 -5.57918 11.9424 15.7357 5.1072e-06 -5.51765e-07 99.7443 80.5895 -98.6742 8.98455 -0.406207 -4.3199e-07 10.7665 3.19053 1.8387 16.3773 -1.3905e-06 -6.99897e-07 3.70497 0.498883 -1.36511 6.45672 -1.25837e-06 -1.02172e-07 18.3721 -3.22354 -2.19883 12.9942 -0.242716 4.98039 -89.2595 -5.19372 -96.8738 5.34809 -7.22636e-06 -6.2814e-07 -76.7754 11.0757 -4.55759 24.3286 1.87007e-05 4.90208e-06 33.1598 -20.3005 -117.969 22.2916 -9.88446e-07 4.63217e-06 45.8219 5.42405 -3.80258 12.9945 -0.242716 -4.98039 90.2553 -5.65838 -102.412 -5.34813 -1.25947e-06 -3.79883e-06 -79.4178 16.98 -8.63619 -24.3289 0.000322201 -8.65921e-06 12.3994 -6.58546 -117.548 -22.2915 -0.000108084 -4.47941e-06 66.7329 5.48935 -6.11235 -2.19248 -6.46944 -1.22534e-07 -175.077 15.0263 -10.4346 39.0811 -6.73843e-06 -1.23785e-05 -0.00904593 0.0323664 31.3319 40.9854 -6.48686e-06 -1.26872e-05 -2.7259 9.75898 -60.2942 11.7543 -2.30145e-07 3.05095e-06 0.0536311 -0.0600759 -17.1644 -2.19251 6.46944 -1.45247e-06 -170.193 -1.36449 -179.548 -39.0811 -0.00228153 -0.0401928 0.0875294 -0.107922 28.4475 -40.9854 7.72618e-06 5.99936e-06 5.24186 -8.23452 -66.8195 -11.7543 -5.6619e-06 -5.58687e-06 -0.00204565 0.00166373 -16.5737 
0 0 0 0 0 -0 -1.74384 90.5706 -11.2845 87.2529 -5.50348 12.0354 15.7357 5.1072e-06 -5.51765e-07 99.6335 80.5674 -98.5531 8.98455 -0.406207 -4.3199e-07 10.816 3.16276 1.86055 16.3773 -1.3905e-06 -6.99897e-07 3.7689 0.483043 -1.33228 6.45672 -1.25837e-06 -1.02172e-07 18.5065 -3.21728 -2.2527 12.9942 -0.242716 4.98039 -89.2729 -5.11027 -96.8913 5.34809 -7.22636e-06 -6.2814e-07 -77.8774 10.0862 -4.86784 24.3286 1.87007e-05 4.90208e-06 25.5956 -16.4015 -120.518 22.2916 -9.88446e-07 4.63217e-06 50.2631 5.26469 0.993409 12.9945 -0.242716 -4.98039 90.2561 -5.61532 -102.385 -5.34813 -1.25947e-06 -3.79883e-06 -79.3578 17.2663 -8.68472 -24.3289 0.000322201 -8.65921e-06 12.9272 -6.84503 -117.441 -22.2915 -0.000108084 -4.47941e-06 67.3859 5.49106 -6.17629 -2.19248 -6.46944 -1.22534e-07 -175.081 15.0093 -10.4085 39.0811 -6.73843e-06 -1.23785e-05 -0.0107503 0.0339582 31.4624 40.9854 -6.48686e-06 -1.26872e-05 -2.68542 9.87031 -60.3589 11.7543 -2.30145e-07 3.05095e-06 0.054343 -0.060875 -17.172 -2.19251 6.46944 -1.45247e-06 -170.143 -1.43696 -179.494 -39.0811 -0.00228153 -0.0401928 0.0857905 -0.103775 28.545 -40.9854 7.72618e-06 5.99936e-06 5.19103 -8.39537 -66.8743 -11.7543 -5.6619e-06 -5.58687e-06 0.0039212 -0.00405408 -16.6052 
